<svg xmlns="http://www.w3.org/2000/svg" viewBox="689.7411 -7.5198 145.4019 203.1975" width="145.402px" height="203.197px" preserveAspectRatio="none"><path d="M 725.912 73.866 L 725.912 68.693 C 717.31 70.757 708.914 72.944 701.352 77.587 C 695.971 81.066 689.666 86.708 695.926 92.588 C 707.396 102.654 723.243 104.995 737.957 106.047 C 738.931 106.133 739.818 106.263 739.939 107.407 C 740.057 109.404 736.812 109.543 735.391 109.775 C 730.181 109.836 724.981 109.75 719.814 108.837 C 710.471 107.364 709.247 111.214 709.29 119.635 C 710.169 137.374 710.203 155.209 712.581 172.835 C 713.598 182.412 720.4 187.62 729.442 189.531 C 738.146 191.676 746.94 192.254 755.877 191.505 C 763.326 190.944 770.698 190.006 777.88 187.869 C 785.43 185.925 789.829 180.903 791.477 173.481 C 792.232 170.089 792.698 166.574 792.767 163.095 C 793.258 141.852 792.665 120.624 794.404 99.424 C 784.096 105.617 772.677 109.122 760.7 109.232 C 759.003 108.672 758.469 106.719 760.449 106.159 C 772.213 104.6 785.18 102.844 794.145 94.328 C 805.546 82.159 787.127 72.497 776.588 70.268 C 770.033 68.588 763.377 67.685 756.617 67.521 C 754.319 67.46 754.224 67.365 753.587 65.403 C 754.293 62.775 769.827 65.471 772.47 65.901 C 781.486 67.572 790.665 70.689 797.477 77.026 C 802.241 81.306 802.455 88.496 799.442 93.887 C 798.263 95.937 798.374 98.331 798.175 100.965 C 836.994 77.06 857.551 145.976 796.659 163.138 C 796.488 165.481 796.333 167.712 796.169 169.949 C 795.506 177.537 792.114 185.511 785.094 189.11 C 760.923 198.133 732.671 197.944 708.8 188.016 C 701.903 184.45 693.197 179.154 693.035 170.492 C 693.061 163.224 693.007 155.941 693.464 148.69 C 694.128 131.949 697.39 114.846 694.205 98.236 C 693.775 96.72 693.007 95.23 692.104 93.94 C 688.824 89.256 688.943 84.467 692.56 80.083 C 700.303 71.187 715.25 67.235 726.498 65.048 C 730.039 52.855 734.472 43.365 747.404 39.29 C 755.914 36.621 757.084 27.193 759.401 19.839 C 760.64 15.439 761.761 10.995 763.939 6.914 C 765.034 4.011 776.288 -10.358 779.009 -7.02 C 779.716 -6.159 779.284 -5.151 777.897 -3.859 C 763.879 7.516 764.998 15.697 759.727 31.421 C 757.885 37.061 754.098 40.918 748.498 42.969 C 730.708 48.231 727.36 70.438 730.305 86.257 C 730.907 89.908 737.512 93.06 738.942 88.403 C 740.216 78.224 742.232 68.114 748.697 59.752 C 754.365 52.364 763.81 49.97 771.216 44.891 C 786.081 35.004 789.506 16.363 797.823 1.663 C 799.151 -1.643 802.714 0.215 801.044 3.375 C 797.067 12.109 793.215 20.917 788.987 29.536 C 776.141 57.014 753.767 48.998 746.611 71.827 C 758.815 71.241 771.317 72.781 782.682 77.631 C 783.753 78.088 784.787 78.656 785.836 79.155 C 790.632 81.437 791.915 88.988 786.396 92.701 C 774.055 100.21 758.977 100.733 744.916 100.337 C 733.997 99.839 723.345 97.937 712.816 95.205 C 708.664 94.129 705.022 91.985 701.784 89.204 C 699.261 87.041 699.537 84.769 702.439 82.977 C 709.612 78.535 717.449 75.787 725.938 73.859 L 725.912 73.866 Z M 796.748 149.722 C 809.088 146.373 816.769 136.693 820.221 124.912 C 822.692 117.653 818.896 107.709 809.861 109.654 C 801.569 111.084 796.238 119.428 797.015 127.54 C 796.894 135.212 796.685 141.843 796.748 149.714 L 796.748 149.722 Z M 805.357 107.191 C 812.85 104.023 821.091 106.416 823.734 114.526 C 824.709 117.318 825.009 120.203 824.443 123.019 C 822.117 135.126 815.458 144.823 804.704 151.143 C 805.642 152.486 806.428 153.614 807.348 154.924 C 815.037 150.325 822.253 145.408 826.842 137.59 C 837.53 122.174 828.567 92.819 806.46 100.958 C 805.23 104.014 805.135 104.514 805.367 107.183 L 805.357 107.191 Z" id="object-0" style=""/></svg>